<svg xmlns="http://www.w3.org/2000/svg" xml:space="preserve" enable-background="new 0 0 1000 1000" version="1.1" viewBox="127.23 338.73 305.3 311.21">

 <g>
  <title>Layer 1</title>
  <path id="svg_1" d="m169.8623,577.57849c-0.01939,-0.35974 -0.03878,-0.71942 0.43171,-1.36798c1.5612,-2.047 2.78657,-3.73175 3.66809,-5.58038c1.35177,-2.83496 1.6614,-7.32123 3.80708,-8.44464c21.34158,-11.1742 43.02249,-21.69812 64.4649,-32.68415c3.56243,-1.82519 8.96096,-1.63342 9.84282,-7.25537c0,0 -0.00891,-0.13702 0.44243,-0.11163c1.75109,-0.22492 3.04462,-0.6496 4.35164,-0.69623c6.94333,-0.2478 7.987,0.8017 8.18195,7.80963c0.05978,2.1496 0.13794,4.30756 0.38211,6.44171c1.18072,10.31952 2.44861,20.62909 3.62558,30.94904c0.44046,3.86182 -1.53919,5.69183 -5.24347,6.47259c-2.6937,0.56775 -5.23837,1.84247 -7.8495,2.80194c0,0 -0.4076,0.16199 -0.99788,0.0622c-2.21534,-0.13019 -3.95009,-0.5492 -5.44713,-0.12647c-8.18266,2.31067 -16.30692,4.82813 -24.6834,7.08045c-1.10553,0.23248 -1.97891,0.65893 -3.05029,1.12036c-0.19801,0.03504 -0.59622,0.09137 -0.97954,0.08484c-1.49884,0.27826 -2.75914,0.32043 -3.70721,0.88599c-8.31879,4.96203 -16.13881,10.35162 -20.20392,19.81274c-1.03276,2.40363 -3.51454,5.50525 -5.69942,5.83392c-5.51636,0.8299 -11.252,0.44092 -16.87887,0.14417c-1.57193,-0.08295 -4.19031,-1.33209 -4.39514,-2.41278c-0.63001,-3.32386 -0.39446,-6.82575 -0.36643,-10.25745c0.05597,-6.85455 0.19763,-13.70837 0.30389,-20.5625z" fill="#028DF8"/>
  <path id="svg_2" d="m211.0331,607.17572c0.22839,-0.27759 0.45678,-0.55524 1.1797,-1.05896c0.85168,-0.64203 1.20883,-1.05804 1.56598,-1.47406c0,0 0.22058,-0.36719 0.71811,-0.50061c1.39747,-0.9082 2.29741,-1.68305 3.19734,-2.45783c0,0 0.12363,0.10444 0.3782,0.01722c0.84098,-0.56562 1.42737,-1.04407 2.01377,-1.52253c0.00001,0.00007 0.03569,-0.09368 0.41807,-0.0725c1.44559,-0.63959 2.50879,-1.30042 3.57199,-1.96125c0,0 0.03437,-0.06891 0.47638,-0.04297c4.1025,-1.40905 7.76297,-2.84405 11.42345,-4.27905c0,0 0.20703,-0.1723 0.77826,-0.10626c8.85463,-1.71289 17.14874,-3.44367 25.41838,-5.28449c8.1044,-1.80395 10.38916,-0.13678 10.76816,8.11493c0.09939,2.16315 0.09491,4.33106 -0.18369,6.38514c-1.39224,-1.13386 -2.48245,-2.13624 -3.52954,-3.18183c-3.9595,-3.95367 -5.73849,-3.45587 -7.39923,1.92676c-1.27093,4.1192 -2.2363,8.44415 -4.24206,12.19373c-1.9795,3.70043 -4.88689,6.98565 -7.76726,10.10168c-3.33915,3.6123 -7.11493,6.81854 -10.65921,10.24444c-3.09017,2.98694 -1.70191,4.95045 1.64759,6.15101c4.35549,1.56121 8.83115,2.79815 13.14333,4.46405c1.85027,0.71478 3.41927,2.15765 4.64049,3.28241c-40.61218,0.03039 -80.74881,0.05462 -120.88544,0.05963c-6.81384,0.00085 -7.34749,-0.53357 -7.77449,-7.22425c0,0 -1.38567,6.14494 0.37045,-0.02484c3.74518,-4.07428 7.14602,-8.09649 10.54683,-12.11871c0.00002,0 0.03537,0.08374 0.30712,-0.06415c4.41398,-2.703 8.3108,-6.73785 12.7546,-7.47497c7.09966,-1.17762 14.5682,0.05236 21.87066,-0.13331c8.90739,-0.22643 17.8459,-0.49767 26.68579,-1.50036c3.65735,-0.41486 6.77528,-2.99146 5.3558,-7.78888c0,0 0.09653,0.07599 0.33048,-0.09943c1.11596,-1.64013 1.99797,-3.10498 2.87999,-4.56976z" fill="#0287F8"/>
  <path id="svg_3" d="m252.93517,510.00504c-11.36881,5.3229 -22.80941,10.49874 -34.08783,16.00674c-13.43404,6.56073 -26.72695,13.41028 -40.08731,20.12213c-1.30401,0.65503 -2.65227,1.22199 -5.13962,2.36072c0.55786,-6.03943 0.98462,-11.2027 1.5323,-16.35309c0.26314,-2.47467 1.24884,-4.96381 1.05891,-7.37976c-0.91565,-11.64777 5.87606,-17.71304 15.19896,-22.51804l43.39235,-22.06668c-0.49656,1.16977 -2.54339,2.47211 -3.7558,3.02655c-4.0572,1.8555 -6.40663,4.03476 -4.94248,9.19959c0.62931,2.21988 -0.73336,5.26105 -1.83551,7.62915c-0.79601,1.71017 -2.81103,2.80685 -4.01299,4.38266c-4.18446,5.48605 -1.74832,10.23715 4.89401,11.78104c6.70558,1.55853 11.93163,-1.47248 17.65003,-3.53589c3.27171,-1.18049 6.7498,-1.78907 10.13498,-2.65512z" fill="#0287F8"/>
  <path id="svg_4" d="m181.29498,483.76511c1.21924,-9.88687 2.51419,-19.76517 3.63015,-29.6637c0.69891,-6.19943 1.33804,-6.88757 7.65948,-6.87961c18.62993,0.02347 37.26038,-0.02438 55.88924,0.12552c2.65803,0.02139 6.1947,-1.37616 7.31259,3.09164c1.09875,4.39118 -1.08435,6.49317 -4.73209,7.91321c-0.92244,0.35913 -1.76301,0.9285 -3.37457,1.46854c-2.48457,0.58182 -4.3705,0.83368 -5.96599,1.65189c-14.47874,7.42553 -29.13322,14.55401 -43.24693,22.62512c-6.33907,3.62509 -11.52324,4.30148 -17.17188,-0.33261z" fill="#0287F8"/>
  <path id="svg_5" d="m258.8316,648.57264c-1.6968,-1.11206 -15.2658,1.68036 -17.11607,0.96558c-4.31218,-1.6659 -0.55255,-4.07931 -4.90804,-5.64052c-3.3495,-1.20056 -7.0907,-5.28172 -4.00053,-8.26866c3.54428,-3.4259 13.673,-8.2792 17.01215,-11.8915c2.88037,-3.11603 -0.56518,-11.57772 1.41432,-15.27815c2.00576,-3.74958 -36.79358,-0.78041 -35.52265,-4.89961c1.66074,-5.38263 51.67502,-19.29219 55.63452,-15.33852c1.04709,1.04559 2.37259,14.04797 3.77661,15.54389c0.32373,1.20074 1.01973,3.81008 -0.29095,6.00603c-1.31069,2.19594 -5.12348,0.7688 -0.70725,4.24335c0.00213,0.16412 1.33821,1.4247 0.04532,0.7218c-1.29289,-0.7029 1.0535,1.00171 0.83844,1.43768c-0.21506,0.43597 2.76306,6.42847 6.78372,4.99848c5.10235,-1.8147 8.79825,-0.41809 12.21036,3.64605c1.4685,1.74915 4.09796,2.52362 6.19998,3.74085c0,0 -0.12308,0.15521 0.02118,0.30688c0.4107,0.36042 0.67715,0.56909 0.9436,0.77784c0,0 -0.15018,0.06396 -0.03689,0.35803c1.98043,2.12896 3.84759,3.9638 5.71475,5.7987c0,0 0.12259,0.00214 0.16961,0.33838c0.44989,0.70191 0.85273,1.06751 1.25556,1.43311c0,0 -0.07971,0.03521 0.00744,0.23999c0.32978,0.44098 0.57242,0.67724 0.81507,0.91351c0.98199,1.01794 1.96402,2.03589 2.98083,3.75952c-0.28671,4.60706 0.30953,6.59206 -3.13713,6.57418c-15.60291,-0.08075 -34.5006,-0.49427 -50.10397,-0.48689z" fill="#0287F8"/>
  <path id="svg_6" d="m357.06796,392.69379c23.31436,-0.26068 46.13922,-0.54029 68.9646,-0.76749c6.20169,-0.06174 8.03604,2.82608 5.16669,8.38452c-2.85944,5.53916 -7.14063,9.32028 -13.84308,8.82602c-14.59637,-1.07639 -29.18585,-2.25311 -43.77078,-3.47641c-26.35999,-2.21097 -52.71756,-4.45224 -79.06635,-6.79117c-2.39728,-0.2128 -4.72366,-1.22421 -6.93768,-2.94113c23.00967,-3.6843 46.06531,-2.15057 69.4866,-3.23434z" fill="#0287F8"/>
  <path id="svg_7" d="m179.08456,368.95154c5.89886,-5.65673 24.01447,-18.71259 36.02816,-28.06058c3.79249,-2.95102 7.51692,-2.8446 11.3274,0.10263c10.46059,8.09067 20.9748,16.11203 31.61469,24.83209c0.93277,2.25428 3.65408,4.26736 4.70513,6.38473c-1.54416,0.4791 -4.00986,1.15906 -5.18729,1.1626c-23.88937,0.07172 -47.99517,0.38119 -71.88164,0.11398c-2.07302,-0.0232 -12.50531,1.12127 -6.60645,-4.53545z" fill="#0287F8"/>
  <path id="svg_8" d="m253.17395,510.03021c-4.24423,3.24552 -7.10205,2.09462 -10.37376,3.27511c-5.7184,2.06341 -11.37456,7.46001 -18.08014,5.90148c-6.64233,-1.54389 -23.05696,5.31791 -18.8725,-0.16814c1.20196,-1.57581 8.37827,-20.3069 9.17428,-22.01707c1.10215,-2.3681 9.77665,-3.04368 9.14734,-5.26356c-1.46415,-5.16483 4.54119,-7.98925 8.59839,-9.84475c1.21241,-0.55444 0.36234,-0.56646 1.21373,-1.77379c7.48531,-4.37348 15.14626,-8.4993 24.11942,-13.33182c1.57864,13.26373 3.00259,25.2279 4.19653,37.22742c-0.31888,-0.76072 0.07421,-7.67194 -0.56424,-2.95783c-0.63845,4.71411 -5.16589,5.74872 -7.57565,8.43036c-0.14688,0.32031 3.26083,-2.72294 -0.9834,0.52258z" fill="#0287F8"/>
  <path id="svg_9" d="m181.91472,438.77985c-4.36896,-4.49958 -9.10515,-8.70685 -12.99187,-13.59024c-3.16872,-3.9813 -1.04114,-8.57856 3.53313,-8.58875c30.61973,-0.06842 61.23968,-0.03244 91.85957,-0.0148c0.48438,0.00031 0.9686,0.19711 1.22113,0.70477c-10.00697,0.4292 -21.44653,2.94585 -31.19668,3.45314c-4.55133,0.23685 -7.3736,-0.774 -11.3089,0.18517c0.4945,3.24176 1.06354,5.19531 1.01745,7.13425c-0.05368,2.25936 10.88412,6.15298 10.05999,8.40844c-13.86543,1.32055 -38.79433,0.99076 -52.19382,2.30802z" fill="#0287F8"/>
  <path id="svg_10" d="m349.77081,361.76376c12.6266,-2.37997 0.54233,-0.32229 1.60511,-0.19775c11.5415,1.36417 20.96914,-4.31717 31.20388,-5.9559c0.47794,-0.16938 0.95591,-0.33875 2.12534,-0.35785c2.81207,-0.37128 4.93262,-0.89282 7.05316,-1.41437c0,-0.00003 0.06088,-0.09085 0.53815,-0.04639c6.46921,-1.32888 12.46118,-2.70218 18.45315,-4.07544c0.30286,-0.14019 0.60569,-0.28039 1.68784,-0.35998c3.2081,-0.27707 5.63968,-0.89301 8.06476,-0.8685c2.12228,0.02142 7.03971,-1.34391 7.57572,-0.18742c0.95075,2.05139 2.51251,5.44503 1.22632,6.85088c-2.56428,2.80286 -7.4617,8.42008 -11.034,9.15235c-8.578,1.75836 -18.90369,2.91611 -27.63901,3.87009c-14.96204,1.63394 -29.91761,3.03383 -44.91178,4.30345c-4.33694,0.36722 -50.40035,2.34706 -52.33964,4.46079c-1.93929,2.11373 39.13218,-4.58972 35.25741,-7.20718c-3.87478,-2.61746 8.507,-5.58682 21.1336,-7.96679z" fill="#0287F8"/>
  <path id="svg_11" d="m223.04507,435.05673c0.35819,-2.25213 0.9498,-4.49869 1.00348,-6.75805c0.04609,-1.93894 -0.52295,-3.89249 -1.01745,-7.13425c3.9353,-0.95917 8.40463,-2.77185 12.95596,-3.0087c9.75015,-0.50729 19.54265,-1.06063 29.80267,-1.1158c4.43552,-0.44245 8.13947,0.3174 6.85328,6.68392c-0.73591,1.52029 -1.12348,2.47311 -1.51108,3.42596c0,0 -0.11041,-0.12375 -0.38877,-0.01791c-2.66534,2.112 -4.94982,6.41207 -7.47814,8.2207c-1.49741,1.07113 -1.44288,0.97722 -3.15419,0.9815c-11.70967,0.02926 -25.35557,-1.10265 -37.06576,-1.27737z" fill="#0287F8"/>
  <path id="svg_12" d="m358.61789,360.67519c-3.81903,5.85437 -20.34952,5.53895 -25.87442,8.43043c0.00381,0.46692 0.0076,0.93381 0.01141,1.40073c4.40335,0.41696 8.86292,1.49783 13.19986,1.13061c14.99417,-1.26962 29.94974,-3.00601 44.91178,-4.63995c8.73532,-0.95398 17.55563,-1.56018 26.13363,-3.31854c3.5723,-0.73227 7.11868,-3.59427 9.68296,-6.39713c1.28619,-1.40585 1.07547,-5.18912 0.12472,-7.24051c-0.53601,-1.15649 -3.94806,-1.29654 -6.07034,-1.31796c-2.42508,-0.02451 -4.85666,0.59143 -7.57056,0.78897c3.92505,-1.00311 8.12619,-1.91354 12.34793,-2.71555c4.07675,-0.77441 5.29694,1.51117 5.38135,5.0965c0.15362,6.52664 -6.12094,13.07257 -13.85645,13.96512c-12.70568,1.466 -25.44287,2.6575 -38.1528,4.08884c-19.81118,2.23105 -39.60595,4.60839 -59.41742,6.83722c-8.75216,0.98458 -17.52069,1.85577 -26.30105,2.52627c-1.41761,0.10825 -2.93607,-1.10428 -4.4079,-1.7063c1.14352,-1.14618 2.1163,-3.00445 3.45758,-3.32611c10.97531,-2.63192 22.01062,-5.01752 33.04532,-7.3963c7.95331,-1.71457 24.96573,-4.59455 33.3544,-6.20634z" fill="#0287F8"/>
  <path id="svg_13" d="m390.65148,429.81229c0,0 -1.18967,-0.28219 0.70786,0.28799c1.89753,0.57018 5.84256,1.68488 8.42965,2.70132c1.22858,0.48267 2.80182,1.70002 2.9769,2.78501c0.16507,1.02283 -1.07284,3.01947 -2.09131,3.34564c-3.06051,0.98019 -6.05472,3.17287 -9.03232,2.64584c-9.10629,-1.61191 -18.5259,-4.35639 -27.51028,-6.59979c-6.08874,-1.52036 -11.86649,-2.99094 -17.92197,-4.64927c-6.4083,-1.75491 -14.20426,-4.05535 -20.51896,-6.09292c-2.91351,-0.94012 -9.25653,-2.46478 -11.85025,-2.57755c-2.59373,-0.11276 5.13508,-3.02123 5.33705,-3.56411c3.21054,0.26428 6.4707,0.25867 9.62332,0.83808c16.5217,3.03659 33.00684,6.27194 49.52673,9.31863c4.06559,0.74976 8.2135,1.05273 12.32358,1.56113z" fill="#0287F8"/>
  <path id="svg_14" d="m390.13885,429.57727c-3.8125,-0.27338 -7.96041,-0.57635 -12.026,-1.32611c-16.51989,-3.04669 -33.00503,-6.28204 -49.52673,-9.31863c-3.15262,-0.57941 -6.41278,-0.5738 -9.62332,-0.83808c-0.20197,0.54288 -0.4039,1.08576 -0.60587,1.62863c2.72049,1.53833 5.28083,3.57291 8.19434,4.51303c6.3147,2.03757 12.82034,3.47779 19.22864,5.2327c6.05548,1.65833 12.04828,3.55902 18.13702,5.07938c8.98438,2.2434 17.97388,4.55777 27.08017,6.16968c2.9776,0.52703 6.40192,-0.80543 9.46243,-1.78562c1.01847,-0.32617 2.25638,-2.32281 2.09131,-3.34564c-0.17508,-1.08499 -1.74832,-2.30234 -2.9769,-2.78501c-2.58709,-1.01644 -5.34796,-1.59054 -8.30124,-2.6036c3.80857,0.51327 7.90656,1.17083 11.94535,2.08874c3.55584,0.80811 3.83728,3.21054 1.62546,5.48902c-3.85172,3.96792 -8.43534,6.51538 -14.31516,5.01229c-24.92773,-6.37228 -49.87122,-12.68377 -74.77386,-19.15252c-7.22229,-1.8761 -14.31366,-4.25144 -21.49503,-6.29248c-2.31729,-0.6586 -5.24289,-1.15726 -4.02524,-4.19559c0.47956,-1.19647 3.84101,-2.07776 5.65879,-1.76358c13.09014,2.26209 26.1235,4.85474 39.16992,7.36832c18.26168,3.51834 36.51907,7.05899 55.07592,10.82507z" fill="#0287F8"/>
  <path id="svg_15" d="m222.57913,435.06006c12.17613,0.17139 23.88655,0.44308 35.59622,0.41382c1.71131,-0.00428 3.59226,-1.20069 5.08967,-2.27182c2.52832,-1.80863 4.8128,-3.95816 7.54235,-6.01773c-2.68121,3.64776 -5.52072,7.52636 -8.82458,10.95782c-1.22479,1.2721 -3.53214,2.0834 -5.35837,2.10642c-22.48218,0.2835 -44.9666,0.4187 -67.45074,0.47122c-2.26778,0.00528 -5.18256,-1.2088 -7.67773,-1.88061c13.1731,-1.57141 27.21775,-2.45857 41.08318,-3.77912z" fill="#0287F8"/>
  <path id="svg_16" d="m230.28023,388.89416c2.69473,8.64768 0.84491,14.11304 -5.32561,16.63962c-5.49118,2.24848 -11.56496,0.14545 -14.50944,-5.02383c-2.78463,-4.88861 -1.16947,-11.40039 3.72567,-15.02075c4.91193,-3.63278 10.40944,-3.09412 14.74506,1.47125c0.4528,0.47678 0.78097,1.0719 1.36432,1.93371z" fill="#0287F8"/>
  <path id="svg_17" d="m258.59131,648.11475c16.07895,-0.02008 31.68252,-0.07715 47.28543,0.0036c3.44666,0.01788 5.90924,-0.79065 6.29919,-5.10761c2.87656,4.04761 1.85913,6.59247 -3.14462,6.81537c-5.48004,0.24426 -10.98001,0.03436 -16.47131,0.03467c-52.75296,0.00287 -105.50591,0.00799 -158.25887,0.01318c-8.01346,0.00073 -9.14249,-2.94497 -3.77971,-9.53098c0.76719,6.60016 1.31178,5.47931 8.12562,5.47846c40.13663,-0.00501 79.33208,2.3237 119.94426,2.29331z" fill="#0287F8"/>
  <path id="svg_18" d="m252.35219,521.93304c-0.51199,5.6123 -2.20085,7.35601 -5.76328,9.1812c-21.44241,10.98603 -41.67171,23.28414 -63.01329,34.45834c-2.14568,1.12341 -5.66749,2.88634 -7.19417,6.02529c-1.52668,3.13895 -4.52624,2.56564 -5.98146,4.35965c-0.08737,-3.59711 -0.62171,-7.59088 0.75281,-10.75562c1.23181,-2.83605 4.20873,-5.40411 7.03659,-6.9671c9.26403,-5.12024 18.74474,-9.86462 28.26444,-14.50256c14.90863,-7.26337 30.56229,-14.6443 45.89836,-21.7992z" fill="#0287F8"/>
  <path id="svg_19" d="m170.6533,567.29333c0.07048,6.49414 89.28358,-53.74876 89.22761,-46.89421c-0.02803,3.4317 -85.4248,82.73998 -84.79479,86.06384c0.20483,1.08069 0.56515,-13.31532 2.13708,-13.23237c5.62687,0.29675 -1.37941,-3.6691 4.13695,-4.499c2.18488,-0.32867 11.27956,-11.97867 12.31232,-14.3823c0.83931,-12.04176 60.43348,-48.07649 68.75227,-53.03852c0.94807,-0.56556 1.56321,50.52126 3.00292,50.52925c0.27839,0.68225 -44.44482,13.65229 -44.49065,14.04169c-7.70325,4.32624 -15.48789,8.54944 -20.50287,16.2649c-0.72553,1.11627 -1.86336,2.14013 -2.12419,3.35418c-1.68204,7.8285 -7.01773,8.35218 -13.62813,7.57593c-6.21544,-0.7298 -12.52336,-0.67181 -19.53362,-0.99463c1.5169,-11.75207 3.90649,-33.41303 5.50511,-44.78876z" fill="#0287F8"/>
  <path id="svg_20" d="m181.33749,483.64741c5.82118,4.32168 12.72578,0.41948 19.06485,-3.20561c14.11371,-8.07111 35.64991,-16.92002 50.12865,-24.34555c1.59549,-0.81821 -5.33578,4.30627 -3.20959,3.79311c-15.16932,8.47812 -30.74869,16.89148 -46.24172,25.46094c-6.77353,3.74658 -13.3705,7.81244 -21.11937,12.36267c0.3747,-5.04458 0.8972,-9.61395 1.37718,-14.06557z" fill="#0287F8"/>
  <path id="svg_21" d="m178.79913,368.98462c2.34356,1.32257 4.38875,3.83401 6.46177,3.85721c23.88647,0.26721 47.77722,0.17279 71.66659,0.10107c1.17743,-0.00354 2.35281,-0.6835 3.89697,-1.1626c-1.05105,-2.11737 -1.83688,-3.70034 -2.69256,-5.63104c3.16336,1.92548 6.39657,4.19864 9.62976,6.47177c-0.24549,0.55512 -0.491,1.11023 -0.73651,1.66535c-30.5979,0 -61.1958,0 -93.30819,0c2.01061,-2.20844 3.40368,-3.73856 5.08217,-5.30176z" fill="#0287F8"/>
  <path id="svg_22" d="m257.85156,393.88882c0.41059,3.90076 0.78952,7.35532 1.15378,10.81144c0.7374,6.9971 0.39362,7.3009 -7.24448,5.94708c-1.07551,-8.29221 -2.16911,-16.72373 -3.27969,-25.28629c3.26978,0 5.68872,0 8.27554,0c0.37555,2.87287 0.71607,5.47757 1.09485,8.52777z" fill="#0287F8"/>
  <path id="svg_23" d="m185.35449,411.23053c-1.03702,-1.08328 -2.39595,-2.2139 -2.30789,-3.21753c0.53766,-6.1286 1.43297,-12.22491 2.1507,-18.33887c0.51933,-4.42376 3.09434,-5.44653 7.49734,-4.21771c0.04544,1.03909 0.25313,2.29981 0.12808,3.52658c-0.5729,5.62109 -1.27635,11.22879 -1.85717,16.84915c-0.33533,3.24475 -1.00763,6.03785 -5.61106,5.39838z" fill="#0287F8"/>
  <path id="svg_24" d="m274.05017,614.73334c0.71251,6.08475 0.07568,-0.3194 0.09149,-0.90936c-0.34573,-3.01813 -0.70721,-5.44642 -1.06872,-7.87464c0.00989,-0.72705 0.01977,-1.45404 0.01788,-2.54315c-0.05502,-2.52777 -0.05054,-4.69568 -0.14993,-6.85883c-0.379,-8.25171 -2.66376,-9.91888 -10.76816,-8.11493c-8.26964,1.84082 -16.56375,3.5716 -25.2842,5.29609c11.54911,-2.94227 23.53524,-5.83008 35.67272,-8.75434c4.64566,12.66059 2.83772,23.95923 4.664,36.39606c9.88098,-4.64221 16.90979,-0.60791 22.85983,7.11237c-1.98556,-0.90516 -4.61502,-1.67963 -6.08352,-3.42878c-3.41211,-4.06414 -7.10801,-5.46075 -12.21036,-3.64605c-4.02066,1.42999 -6.93243,0.5064 -6.90759,-5.23059c-0.37607,-0.90748 -1.54595,-7.5286 -0.83344,-1.44385z" fill="#0287F8"/>
  <path id="svg_25" d="m251.58085,576.92758c2.15921,-1.00629 8.25226,-6.79714 10.94596,-7.36489c3.70428,-0.78076 2.45813,-1.96561 2.01767,-5.82743c-1.17697,-10.31995 -1.15454,-17.24243 -2.33526,-27.56195c-0.24417,-2.13415 0.48412,-4.77598 0.42434,-6.92558c-0.19495,-7.00793 -2.20636,-3.5413 -9.14969,-3.2935c-1.30702,0.04663 0.46396,-4.04482 -1.21869,-3.81429c3.51935,-1.72284 7.74421,-3.42584 12.28419,-5.40722c1.15286,7.78436 2.28699,14.94903 3.26068,22.1355c1.36065,10.04254 2.5784,20.1043 3.90857,30.15112c0.37875,2.86096 -0.05591,4.84863 -3.53726,5.20752c-3.79084,0.39068 -12.38034,2.13766 -16.60052,2.70071z" fill="#0287F8"/>
  <path id="svg_26" d="m208.72515,611.33617c1.69343,4.60028 9.63432,11.64747 5.97697,12.06233c-8.83989,1.00269 -0.60193,10.68569 -9.50932,10.91212c-7.30246,0.18567 -44.65335,0.13216 -51.75301,1.30978c-4.4438,0.73712 -7.87003,-9.58097 -12.32562,-6.89628c3.68176,-6.45044 8.8484,-9.91418 17.22384,-9.32892c12.04265,0.84143 24.17847,0.56714 36.26946,0.40076c5.42566,-0.07465 11.04278,-3.35999 14.11768,-8.45979z" fill="#0287F8"/>
  <path id="svg_27" d="m221.32217,585.85523c-0.33934,-0.36292 -0.29351,-0.75233 -0.18856,-1.42798c0.05911,-0.28632 0.45732,-0.34265 0.98556,-0.37452c1.33623,-0.33111 2.14421,-0.63031 2.95219,-0.92956c8.14435,-2.44629 16.26861,-4.96375 24.45127,-7.27442c1.49704,-0.42273 3.23179,-0.00372 5.22787,0.13129c-4.05688,1.16528 -8.54275,2.03186 -12.89935,3.33173c-6.76086,2.01721 -13.43367,4.32965 -20.52898,6.54346z" fill="#0287F8"/>
  <path id="svg_28" d="m382.42413,355.78363c-9.84378,1.7005 -17.85966,7.61713 -29.17542,6.32397c9.72744,-2.08789 18.55006,-4.35449 29.17542,-6.32397z" fill="#0287F8"/>
  <path id="svg_29" d="m410.61121,349.9158c-5.61829,1.40881 -11.61026,2.78211 -18.03376,4.1409c5.599,-1.40182 11.62955,-2.78912 18.03376,-4.1409z" fill="#0287F8"/>
  <path id="svg_30" d="m140.54326,628.9386c-3.09541,3.8902 -6.49625,7.91241 -10.24005,11.96814c3.08288,-3.92304 6.50877,-7.87958 10.24005,-11.96814z" fill="#0287F8"/>
  <path stroke="null" id="svg_31" d="m254.28775,509.41852c2.04407,-2.59253 6.1414,-4.78337 7.20996,-8.34125c1.06856,-3.55788 0.24536,2.19711 0.39334,3.2666c-1.29153,1.31638 -2.64215,2.35929 -4.55041,3.51099c-0.8393,0.30856 -1.12091,0.50839 -1.40253,0.70819c-0.42821,0.25546 -0.85644,0.51089 -1.65036,0.85547z" fill="#0287F8"/>
  <path id="svg_32" d="m235.57014,593.81043c-3.25453,1.44775 -6.915,2.88275 -10.98359,4.30999c3.25381,-1.44604 6.91574,-2.8844 10.98359,-4.30999z" fill="#0287F8"/>
  <path id="svg_33" d="m306.73328,635.73059c-1.75626,-1.52936 -3.62342,-3.3642 -5.5354,-5.53784c1.77829,1.51831 3.60138,3.3753 5.5354,5.53784z" fill="#0287F8"/>
  <path id="svg_34" d="m391.59436,354.04022c-1.72131,0.55451 -3.84186,1.07605 -6.27045,1.44025c1.75171,-0.59598 3.81147,-1.03458 6.27045,-1.44025z" fill="#0287F8"/>
  <path id="svg_35" d="m210.75,607.32941c-0.59892,1.31109 -1.48093,2.77594 -2.65622,4.4002c0.59552,-1.30914 1.48431,-2.77783 2.65622,-4.4002z" fill="#0287F8"/>
  <path id="svg_36" d="m271.46033,427.04932c0.0592,-0.85236 0.44677,-1.80518 1.1239,-2.90326c-0.07212,0.83743 -0.43378,1.8201 -1.1239,2.90326z" fill="#0287F8"/>
  <path id="svg_37" d="m217.39386,601.73889c-0.59956,0.72015 -1.4995,1.495 -2.71036,2.2981c0.59604,-0.72895 1.50302,-1.48627 2.71036,-2.2981z" fill="#0287F8"/>
  <path id="svg_38" d="m223.75667,598.14783c-0.74361,0.6582 -1.80681,1.31903 -3.20584,1.97729c0.73819,-0.65991 1.81222,-1.31732 3.20584,-1.97729z" fill="#0287F8"/>
  <path id="svg_39" d="m219.79509,600.21033c-0.29529,0.44708 -0.88168,0.92553 -1.76675,1.42334c0.29277,-0.45105 0.88421,-0.92151 1.76675,-1.42334z" fill="#0287F8"/>
  <path id="svg_40" d="m213.50909,604.71594c-0.08746,0.34278 -0.44461,0.75879 -1.07362,1.24658c0.08675,-0.3432 0.44533,-0.75823 1.07362,-1.24658z" fill="#0287F8"/>
  <path id="svg_41" d="m308.22141,637.52924c-0.35489,-0.08722 -0.75773,-0.45282 -1.20914,-1.09345c0.3547,0.08838 0.75793,0.45172 1.20914,1.09345z" fill="#0287F8"/>
  <path id="svg_42" d="m256.35925,508.58539c0.09577,-0.22214 0.37738,-0.42197 0.82956,-0.66822c-0.10083,0.19922 -0.37225,0.44492 -0.82956,0.66822z" fill="#0287F8"/>
  <path id="svg_43" d="m301.10193,629.6178c-0.20206,0.05285 -0.46851,-0.15582 -0.83222,-0.6034c0.19111,-0.04528 0.47944,0.14826 0.83222,0.6034z" fill="#0287F8"/>
  <path id="svg_44" d="m309.02866,638.70215c-0.17945,0.0227 -0.42209,-0.21356 -0.74131,-0.69684c0.17499,-0.01874 0.42655,0.20953 0.74131,0.69684z" fill="#0287F8"/>
  <path id="svg_45" d="m224.83922,582.9292c-0.57584,0.49322 -1.38382,0.79242 -2.52202,1.0885c0.54312,-0.42957 1.4165,-0.85602 2.52202,-1.0885z" fill="#0287F8"/>
  <path stroke="null" id="svg_46" d="m272.71332,606.00647c0.72113,2.37109 3.18931,11.36846 3.53288,14.22252c-4.43201,-2.88464 -6.98112,-11.46135 -3.53288,-14.22252z" fill="#0287F8"/>
  <path id="svg_47" d="m274.16904,614.97162c0.1098,0.02991 0.3385,0.29809 0.69107,0.7984c-0.10816,-0.03198 -0.34018,-0.29602 -0.69107,-0.7984z" fill="#0287F8"/>
  <rect id="svg_48" height="6.97674" width="15.34884" y="421.86047" x="210.23256" fill="#0287F8"/>
  <rect stroke="null" id="svg_49" height="8.83721" width="67.44186" y="419.06976" x="183.72094" fill="#0287F8"/>
 </g>
</svg>